<?xml version="1.0" encoding="utf-8" standalone="no"?>
<!DOCTYPE svg PUBLIC "-//W3C//DTD SVG 1.1//EN"
  "http://www.w3.org/Graphics/SVG/1.1/DTD/svg11.dtd">
<svg xmlns:xlink="http://www.w3.org/1999/xlink" width="458.012656pt" height="329.552937pt" viewBox="0 0 458.012656 329.552937" xmlns="http://www.w3.org/2000/svg" version="1.1">
 <metadata>
  <rdf:RDF xmlns:dc="http://purl.org/dc/elements/1.1/" xmlns:cc="http://creativecommons.org/ns#" xmlns:rdf="http://www.w3.org/1999/02/22-rdf-syntax-ns#">
   <cc:Work>
    <dc:type rdf:resource="http://purl.org/dc/dcmitype/StillImage"/>
    <dc:date>2024-06-25T20:30:53.732569</dc:date>
    <dc:format>image/svg+xml</dc:format>
    <dc:creator>
     <cc:Agent>
      <dc:title>Matplotlib v3.9.0, https://matplotlib.org/</dc:title>
     </cc:Agent>
    </dc:creator>
   </cc:Work>
  </rdf:RDF>
 </metadata>
 <defs>
  <style type="text/css">*{stroke-linejoin: round; stroke-linecap: butt}</style>
 </defs>
 <g id="figure_1">
  <g id="patch_1">
   <path d="M 0 329.552937 
L 458.012656 329.552937 
L 458.012656 0 
L 0 0 
z
" style="fill: #ffffff"/>
  </g>
  <g id="axes_1">
   <g id="patch_2">
    <path d="M 55.692188 287.763875 
L 412.812188 287.763875 
L 412.812188 21.651875 
L 55.692188 21.651875 
z
" style="fill: #ffffff"/>
   </g>
   <g id="line2d_1">
    <path d="M 126.105818 287.763875 
L 126.105818 21.651875 
" clip-path="url(#p891e617c62)" style="fill: none; stroke-dasharray: 3.7,1.6; stroke-dashoffset: 0; stroke: #999999"/>
   </g>
   <g id="line2d_2">
    <path d="M 55.692188 252.668346 
L 412.812188 252.668346 
" clip-path="url(#p891e617c62)" style="fill: none; stroke-dasharray: 3.7,1.6; stroke-dashoffset: 0; stroke: #999999"/>
   </g>
   <g id="matplotlib.axis_1">
    <g id="xtick_1">
     <g id="line2d_3">
      <defs>
       <path id="m0e4a5ed6ad" d="M 0 0 
L 0 3.5 
" style="stroke: #000000; stroke-width: 0.8"/>
      </defs>
      <g>
       <use xlink:href="#m0e4a5ed6ad" x="77.80914" y="287.763875" style="stroke: #000000; stroke-width: 0.8"/>
      </g>
     </g>
     <g id="text_1">
      <!-- 0 -->
      <g transform="translate(74.309765 303.122156) scale(0.11 -0.11)">
       <defs>
        <path id="DejaVuSans-30" d="M 2034 4250 
Q 1547 4250 1301 3770 
Q 1056 3291 1056 2328 
Q 1056 1369 1301 889 
Q 1547 409 2034 409 
Q 2525 409 2770 889 
Q 3016 1369 3016 2328 
Q 3016 3291 2770 3770 
Q 2525 4250 2034 4250 
z
M 2034 4750 
Q 2819 4750 3233 4129 
Q 3647 3509 3647 2328 
Q 3647 1150 3233 529 
Q 2819 -91 2034 -91 
Q 1250 -91 836 529 
Q 422 1150 422 2328 
Q 422 3509 836 4129 
Q 1250 4750 2034 4750 
z
" transform="scale(0.015625)"/>
       </defs>
       <use xlink:href="#DejaVuSans-30"/>
      </g>
     </g>
    </g>
    <g id="xtick_2">
     <g id="line2d_4">
      <g>
       <use xlink:href="#m0e4a5ed6ad" x="150.025945" y="287.763875" style="stroke: #000000; stroke-width: 0.8"/>
      </g>
     </g>
     <g id="text_2">
      <!-- 100000 -->
      <g transform="translate(129.029695 303.122156) scale(0.11 -0.11)">
       <defs>
        <path id="DejaVuSans-31" d="M 794 531 
L 1825 531 
L 1825 4091 
L 703 3866 
L 703 4441 
L 1819 4666 
L 2450 4666 
L 2450 531 
L 3481 531 
L 3481 0 
L 794 0 
L 794 531 
z
" transform="scale(0.015625)"/>
       </defs>
       <use xlink:href="#DejaVuSans-31"/>
       <use xlink:href="#DejaVuSans-30" x="63.623047"/>
       <use xlink:href="#DejaVuSans-30" x="127.246094"/>
       <use xlink:href="#DejaVuSans-30" x="190.869141"/>
       <use xlink:href="#DejaVuSans-30" x="254.492188"/>
       <use xlink:href="#DejaVuSans-30" x="318.115234"/>
      </g>
     </g>
    </g>
    <g id="xtick_3">
     <g id="line2d_5">
      <g>
       <use xlink:href="#m0e4a5ed6ad" x="222.24275" y="287.763875" style="stroke: #000000; stroke-width: 0.8"/>
      </g>
     </g>
     <g id="text_3">
      <!-- 200000 -->
      <g transform="translate(201.2465 303.122156) scale(0.11 -0.11)">
       <defs>
        <path id="DejaVuSans-32" d="M 1228 531 
L 3431 531 
L 3431 0 
L 469 0 
L 469 531 
Q 828 903 1448 1529 
Q 2069 2156 2228 2338 
Q 2531 2678 2651 2914 
Q 2772 3150 2772 3378 
Q 2772 3750 2511 3984 
Q 2250 4219 1831 4219 
Q 1534 4219 1204 4116 
Q 875 4013 500 3803 
L 500 4441 
Q 881 4594 1212 4672 
Q 1544 4750 1819 4750 
Q 2544 4750 2975 4387 
Q 3406 4025 3406 3419 
Q 3406 3131 3298 2873 
Q 3191 2616 2906 2266 
Q 2828 2175 2409 1742 
Q 1991 1309 1228 531 
z
" transform="scale(0.015625)"/>
       </defs>
       <use xlink:href="#DejaVuSans-32"/>
       <use xlink:href="#DejaVuSans-30" x="63.623047"/>
       <use xlink:href="#DejaVuSans-30" x="127.246094"/>
       <use xlink:href="#DejaVuSans-30" x="190.869141"/>
       <use xlink:href="#DejaVuSans-30" x="254.492188"/>
       <use xlink:href="#DejaVuSans-30" x="318.115234"/>
      </g>
     </g>
    </g>
    <g id="xtick_4">
     <g id="line2d_6">
      <g>
       <use xlink:href="#m0e4a5ed6ad" x="294.459554" y="287.763875" style="stroke: #000000; stroke-width: 0.8"/>
      </g>
     </g>
     <g id="text_4">
      <!-- 300000 -->
      <g transform="translate(273.463304 303.122156) scale(0.11 -0.11)">
       <defs>
        <path id="DejaVuSans-33" d="M 2597 2516 
Q 3050 2419 3304 2112 
Q 3559 1806 3559 1356 
Q 3559 666 3084 287 
Q 2609 -91 1734 -91 
Q 1441 -91 1130 -33 
Q 819 25 488 141 
L 488 750 
Q 750 597 1062 519 
Q 1375 441 1716 441 
Q 2309 441 2620 675 
Q 2931 909 2931 1356 
Q 2931 1769 2642 2001 
Q 2353 2234 1838 2234 
L 1294 2234 
L 1294 2753 
L 1863 2753 
Q 2328 2753 2575 2939 
Q 2822 3125 2822 3475 
Q 2822 3834 2567 4026 
Q 2313 4219 1838 4219 
Q 1578 4219 1281 4162 
Q 984 4106 628 3988 
L 628 4550 
Q 988 4650 1302 4700 
Q 1616 4750 1894 4750 
Q 2613 4750 3031 4423 
Q 3450 4097 3450 3541 
Q 3450 3153 3228 2886 
Q 3006 2619 2597 2516 
z
" transform="scale(0.015625)"/>
       </defs>
       <use xlink:href="#DejaVuSans-33"/>
       <use xlink:href="#DejaVuSans-30" x="63.623047"/>
       <use xlink:href="#DejaVuSans-30" x="127.246094"/>
       <use xlink:href="#DejaVuSans-30" x="190.869141"/>
       <use xlink:href="#DejaVuSans-30" x="254.492188"/>
       <use xlink:href="#DejaVuSans-30" x="318.115234"/>
      </g>
     </g>
    </g>
    <g id="xtick_5">
     <g id="line2d_7">
      <g>
       <use xlink:href="#m0e4a5ed6ad" x="366.676359" y="287.763875" style="stroke: #000000; stroke-width: 0.8"/>
      </g>
     </g>
     <g id="text_5">
      <!-- 400000 -->
      <g transform="translate(345.680109 303.122156) scale(0.11 -0.11)">
       <defs>
        <path id="DejaVuSans-34" d="M 2419 4116 
L 825 1625 
L 2419 1625 
L 2419 4116 
z
M 2253 4666 
L 3047 4666 
L 3047 1625 
L 3713 1625 
L 3713 1100 
L 3047 1100 
L 3047 0 
L 2419 0 
L 2419 1100 
L 313 1100 
L 313 1709 
L 2253 4666 
z
" transform="scale(0.015625)"/>
       </defs>
       <use xlink:href="#DejaVuSans-34"/>
       <use xlink:href="#DejaVuSans-30" x="63.623047"/>
       <use xlink:href="#DejaVuSans-30" x="127.246094"/>
       <use xlink:href="#DejaVuSans-30" x="190.869141"/>
       <use xlink:href="#DejaVuSans-30" x="254.492188"/>
       <use xlink:href="#DejaVuSans-30" x="318.115234"/>
      </g>
     </g>
    </g>
    <g id="text_6">
     <!-- person_income -->
     <g transform="translate(184.914141 319.287781) scale(0.13 -0.13)">
      <defs>
       <path id="DejaVuSans-70" d="M 1159 525 
L 1159 -1331 
L 581 -1331 
L 581 3500 
L 1159 3500 
L 1159 2969 
Q 1341 3281 1617 3432 
Q 1894 3584 2278 3584 
Q 2916 3584 3314 3078 
Q 3713 2572 3713 1747 
Q 3713 922 3314 415 
Q 2916 -91 2278 -91 
Q 1894 -91 1617 61 
Q 1341 213 1159 525 
z
M 3116 1747 
Q 3116 2381 2855 2742 
Q 2594 3103 2138 3103 
Q 1681 3103 1420 2742 
Q 1159 2381 1159 1747 
Q 1159 1113 1420 752 
Q 1681 391 2138 391 
Q 2594 391 2855 752 
Q 3116 1113 3116 1747 
z
" transform="scale(0.015625)"/>
       <path id="DejaVuSans-65" d="M 3597 1894 
L 3597 1613 
L 953 1613 
Q 991 1019 1311 708 
Q 1631 397 2203 397 
Q 2534 397 2845 478 
Q 3156 559 3463 722 
L 3463 178 
Q 3153 47 2828 -22 
Q 2503 -91 2169 -91 
Q 1331 -91 842 396 
Q 353 884 353 1716 
Q 353 2575 817 3079 
Q 1281 3584 2069 3584 
Q 2775 3584 3186 3129 
Q 3597 2675 3597 1894 
z
M 3022 2063 
Q 3016 2534 2758 2815 
Q 2500 3097 2075 3097 
Q 1594 3097 1305 2825 
Q 1016 2553 972 2059 
L 3022 2063 
z
" transform="scale(0.015625)"/>
       <path id="DejaVuSans-72" d="M 2631 2963 
Q 2534 3019 2420 3045 
Q 2306 3072 2169 3072 
Q 1681 3072 1420 2755 
Q 1159 2438 1159 1844 
L 1159 0 
L 581 0 
L 581 3500 
L 1159 3500 
L 1159 2956 
Q 1341 3275 1631 3429 
Q 1922 3584 2338 3584 
Q 2397 3584 2469 3576 
Q 2541 3569 2628 3553 
L 2631 2963 
z
" transform="scale(0.015625)"/>
       <path id="DejaVuSans-73" d="M 2834 3397 
L 2834 2853 
Q 2591 2978 2328 3040 
Q 2066 3103 1784 3103 
Q 1356 3103 1142 2972 
Q 928 2841 928 2578 
Q 928 2378 1081 2264 
Q 1234 2150 1697 2047 
L 1894 2003 
Q 2506 1872 2764 1633 
Q 3022 1394 3022 966 
Q 3022 478 2636 193 
Q 2250 -91 1575 -91 
Q 1294 -91 989 -36 
Q 684 19 347 128 
L 347 722 
Q 666 556 975 473 
Q 1284 391 1588 391 
Q 1994 391 2212 530 
Q 2431 669 2431 922 
Q 2431 1156 2273 1281 
Q 2116 1406 1581 1522 
L 1381 1569 
Q 847 1681 609 1914 
Q 372 2147 372 2553 
Q 372 3047 722 3315 
Q 1072 3584 1716 3584 
Q 2034 3584 2315 3537 
Q 2597 3491 2834 3397 
z
" transform="scale(0.015625)"/>
       <path id="DejaVuSans-6f" d="M 1959 3097 
Q 1497 3097 1228 2736 
Q 959 2375 959 1747 
Q 959 1119 1226 758 
Q 1494 397 1959 397 
Q 2419 397 2687 759 
Q 2956 1122 2956 1747 
Q 2956 2369 2687 2733 
Q 2419 3097 1959 3097 
z
M 1959 3584 
Q 2709 3584 3137 3096 
Q 3566 2609 3566 1747 
Q 3566 888 3137 398 
Q 2709 -91 1959 -91 
Q 1206 -91 779 398 
Q 353 888 353 1747 
Q 353 2609 779 3096 
Q 1206 3584 1959 3584 
z
" transform="scale(0.015625)"/>
       <path id="DejaVuSans-6e" d="M 3513 2113 
L 3513 0 
L 2938 0 
L 2938 2094 
Q 2938 2591 2744 2837 
Q 2550 3084 2163 3084 
Q 1697 3084 1428 2787 
Q 1159 2491 1159 1978 
L 1159 0 
L 581 0 
L 581 3500 
L 1159 3500 
L 1159 2956 
Q 1366 3272 1645 3428 
Q 1925 3584 2291 3584 
Q 2894 3584 3203 3211 
Q 3513 2838 3513 2113 
z
" transform="scale(0.015625)"/>
       <path id="DejaVuSans-5f" d="M 3263 -1063 
L 3263 -1509 
L -63 -1509 
L -63 -1063 
L 3263 -1063 
z
" transform="scale(0.015625)"/>
       <path id="DejaVuSans-69" d="M 603 3500 
L 1178 3500 
L 1178 0 
L 603 0 
L 603 3500 
z
M 603 4863 
L 1178 4863 
L 1178 4134 
L 603 4134 
L 603 4863 
z
" transform="scale(0.015625)"/>
       <path id="DejaVuSans-63" d="M 3122 3366 
L 3122 2828 
Q 2878 2963 2633 3030 
Q 2388 3097 2138 3097 
Q 1578 3097 1268 2742 
Q 959 2388 959 1747 
Q 959 1106 1268 751 
Q 1578 397 2138 397 
Q 2388 397 2633 464 
Q 2878 531 3122 666 
L 3122 134 
Q 2881 22 2623 -34 
Q 2366 -91 2075 -91 
Q 1284 -91 818 406 
Q 353 903 353 1747 
Q 353 2603 823 3093 
Q 1294 3584 2113 3584 
Q 2378 3584 2631 3529 
Q 2884 3475 3122 3366 
z
" transform="scale(0.015625)"/>
       <path id="DejaVuSans-6d" d="M 3328 2828 
Q 3544 3216 3844 3400 
Q 4144 3584 4550 3584 
Q 5097 3584 5394 3201 
Q 5691 2819 5691 2113 
L 5691 0 
L 5113 0 
L 5113 2094 
Q 5113 2597 4934 2840 
Q 4756 3084 4391 3084 
Q 3944 3084 3684 2787 
Q 3425 2491 3425 1978 
L 3425 0 
L 2847 0 
L 2847 2094 
Q 2847 2600 2669 2842 
Q 2491 3084 2119 3084 
Q 1678 3084 1418 2786 
Q 1159 2488 1159 1978 
L 1159 0 
L 581 0 
L 581 3500 
L 1159 3500 
L 1159 2956 
Q 1356 3278 1631 3431 
Q 1906 3584 2284 3584 
Q 2666 3584 2933 3390 
Q 3200 3197 3328 2828 
z
" transform="scale(0.015625)"/>
      </defs>
      <use xlink:href="#DejaVuSans-70"/>
      <use xlink:href="#DejaVuSans-65" x="63.476562"/>
      <use xlink:href="#DejaVuSans-72" x="125"/>
      <use xlink:href="#DejaVuSans-73" x="166.113281"/>
      <use xlink:href="#DejaVuSans-6f" x="218.212891"/>
      <use xlink:href="#DejaVuSans-6e" x="279.394531"/>
      <use xlink:href="#DejaVuSans-5f" x="342.773438"/>
      <use xlink:href="#DejaVuSans-69" x="392.773438"/>
      <use xlink:href="#DejaVuSans-6e" x="420.556641"/>
      <use xlink:href="#DejaVuSans-63" x="483.935547"/>
      <use xlink:href="#DejaVuSans-6f" x="538.916016"/>
      <use xlink:href="#DejaVuSans-6d" x="600.097656"/>
      <use xlink:href="#DejaVuSans-65" x="697.509766"/>
     </g>
    </g>
   </g>
   <g id="matplotlib.axis_2">
    <g id="ytick_1">
     <g id="line2d_8">
      <defs>
       <path id="mb8f68738d5" d="M 0 0 
L -3.5 0 
" style="stroke: #000000; stroke-width: 0.8"/>
      </defs>
      <g>
       <use xlink:href="#mb8f68738d5" x="55.692188" y="276.749488" style="stroke: #000000; stroke-width: 0.8"/>
      </g>
     </g>
     <g id="text_7">
      <!-- 0.00 -->
      <g transform="translate(24.2 280.928628) scale(0.11 -0.11)">
       <defs>
        <path id="DejaVuSans-2e" d="M 684 794 
L 1344 794 
L 1344 0 
L 684 0 
L 684 794 
z
" transform="scale(0.015625)"/>
       </defs>
       <use xlink:href="#DejaVuSans-30"/>
       <use xlink:href="#DejaVuSans-2e" x="63.623047"/>
       <use xlink:href="#DejaVuSans-30" x="95.410156"/>
       <use xlink:href="#DejaVuSans-30" x="159.033203"/>
      </g>
     </g>
    </g>
    <g id="ytick_2">
     <g id="line2d_9">
      <g>
       <use xlink:href="#mb8f68738d5" x="55.692188" y="245.370843" style="stroke: #000000; stroke-width: 0.8"/>
      </g>
     </g>
     <g id="text_8">
      <!-- 0.25 -->
      <g transform="translate(24.2 249.549983) scale(0.11 -0.11)">
       <defs>
        <path id="DejaVuSans-35" d="M 691 4666 
L 3169 4666 
L 3169 4134 
L 1269 4134 
L 1269 2991 
Q 1406 3038 1543 3061 
Q 1681 3084 1819 3084 
Q 2600 3084 3056 2656 
Q 3513 2228 3513 1497 
Q 3513 744 3044 326 
Q 2575 -91 1722 -91 
Q 1428 -91 1123 -41 
Q 819 9 494 109 
L 494 744 
Q 775 591 1075 516 
Q 1375 441 1709 441 
Q 2250 441 2565 725 
Q 2881 1009 2881 1497 
Q 2881 1984 2565 2268 
Q 2250 2553 1709 2553 
Q 1456 2553 1204 2497 
Q 953 2441 691 2322 
L 691 4666 
z
" transform="scale(0.015625)"/>
       </defs>
       <use xlink:href="#DejaVuSans-30"/>
       <use xlink:href="#DejaVuSans-2e" x="63.623047"/>
       <use xlink:href="#DejaVuSans-32" x="95.410156"/>
       <use xlink:href="#DejaVuSans-35" x="159.033203"/>
      </g>
     </g>
    </g>
    <g id="ytick_3">
     <g id="line2d_10">
      <g>
       <use xlink:href="#mb8f68738d5" x="55.692188" y="213.992197" style="stroke: #000000; stroke-width: 0.8"/>
      </g>
     </g>
     <g id="text_9">
      <!-- 0.50 -->
      <g transform="translate(24.2 218.171338) scale(0.11 -0.11)">
       <use xlink:href="#DejaVuSans-30"/>
       <use xlink:href="#DejaVuSans-2e" x="63.623047"/>
       <use xlink:href="#DejaVuSans-35" x="95.410156"/>
       <use xlink:href="#DejaVuSans-30" x="159.033203"/>
      </g>
     </g>
    </g>
    <g id="ytick_4">
     <g id="line2d_11">
      <g>
       <use xlink:href="#mb8f68738d5" x="55.692188" y="182.613552" style="stroke: #000000; stroke-width: 0.8"/>
      </g>
     </g>
     <g id="text_10">
      <!-- 0.75 -->
      <g transform="translate(24.2 186.792693) scale(0.11 -0.11)">
       <defs>
        <path id="DejaVuSans-37" d="M 525 4666 
L 3525 4666 
L 3525 4397 
L 1831 0 
L 1172 0 
L 2766 4134 
L 525 4134 
L 525 4666 
z
" transform="scale(0.015625)"/>
       </defs>
       <use xlink:href="#DejaVuSans-30"/>
       <use xlink:href="#DejaVuSans-2e" x="63.623047"/>
       <use xlink:href="#DejaVuSans-37" x="95.410156"/>
       <use xlink:href="#DejaVuSans-35" x="159.033203"/>
      </g>
     </g>
    </g>
    <g id="ytick_5">
     <g id="line2d_12">
      <g>
       <use xlink:href="#mb8f68738d5" x="55.692188" y="151.234907" style="stroke: #000000; stroke-width: 0.8"/>
      </g>
     </g>
     <g id="text_11">
      <!-- 1.00 -->
      <g transform="translate(24.2 155.414048) scale(0.11 -0.11)">
       <use xlink:href="#DejaVuSans-31"/>
       <use xlink:href="#DejaVuSans-2e" x="63.623047"/>
       <use xlink:href="#DejaVuSans-30" x="95.410156"/>
       <use xlink:href="#DejaVuSans-30" x="159.033203"/>
      </g>
     </g>
    </g>
    <g id="ytick_6">
     <g id="line2d_13">
      <g>
       <use xlink:href="#mb8f68738d5" x="55.692188" y="119.856262" style="stroke: #000000; stroke-width: 0.8"/>
      </g>
     </g>
     <g id="text_12">
      <!-- 1.25 -->
      <g transform="translate(24.2 124.035403) scale(0.11 -0.11)">
       <use xlink:href="#DejaVuSans-31"/>
       <use xlink:href="#DejaVuSans-2e" x="63.623047"/>
       <use xlink:href="#DejaVuSans-32" x="95.410156"/>
       <use xlink:href="#DejaVuSans-35" x="159.033203"/>
      </g>
     </g>
    </g>
    <g id="ytick_7">
     <g id="line2d_14">
      <g>
       <use xlink:href="#mb8f68738d5" x="55.692188" y="88.477617" style="stroke: #000000; stroke-width: 0.8"/>
      </g>
     </g>
     <g id="text_13">
      <!-- 1.50 -->
      <g transform="translate(24.2 92.656758) scale(0.11 -0.11)">
       <use xlink:href="#DejaVuSans-31"/>
       <use xlink:href="#DejaVuSans-2e" x="63.623047"/>
       <use xlink:href="#DejaVuSans-35" x="95.410156"/>
       <use xlink:href="#DejaVuSans-30" x="159.033203"/>
      </g>
     </g>
    </g>
    <g id="ytick_8">
     <g id="line2d_15">
      <g>
       <use xlink:href="#mb8f68738d5" x="55.692188" y="57.098972" style="stroke: #000000; stroke-width: 0.8"/>
      </g>
     </g>
     <g id="text_14">
      <!-- 1.75 -->
      <g transform="translate(24.2 61.278113) scale(0.11 -0.11)">
       <use xlink:href="#DejaVuSans-31"/>
       <use xlink:href="#DejaVuSans-2e" x="63.623047"/>
       <use xlink:href="#DejaVuSans-37" x="95.410156"/>
       <use xlink:href="#DejaVuSans-35" x="159.033203"/>
      </g>
     </g>
    </g>
    <g id="ytick_9">
     <g id="line2d_16">
      <g>
       <use xlink:href="#mb8f68738d5" x="55.692188" y="25.720327" style="stroke: #000000; stroke-width: 0.8"/>
      </g>
     </g>
     <g id="text_15">
      <!-- 2.00 -->
      <g transform="translate(24.2 29.899468) scale(0.11 -0.11)">
       <use xlink:href="#DejaVuSans-32"/>
       <use xlink:href="#DejaVuSans-2e" x="63.623047"/>
       <use xlink:href="#DejaVuSans-30" x="95.410156"/>
       <use xlink:href="#DejaVuSans-30" x="159.033203"/>
      </g>
     </g>
    </g>
    <g id="text_16">
     <!-- E[f(x) | person_income] -->
     <g transform="translate(17.134844 230.753812) rotate(-90) scale(0.13 -0.13)">
      <defs>
       <path id="DejaVuSans-45" d="M 628 4666 
L 3578 4666 
L 3578 4134 
L 1259 4134 
L 1259 2753 
L 3481 2753 
L 3481 2222 
L 1259 2222 
L 1259 531 
L 3634 531 
L 3634 0 
L 628 0 
L 628 4666 
z
" transform="scale(0.015625)"/>
       <path id="DejaVuSans-5b" d="M 550 4863 
L 1875 4863 
L 1875 4416 
L 1125 4416 
L 1125 -397 
L 1875 -397 
L 1875 -844 
L 550 -844 
L 550 4863 
z
" transform="scale(0.015625)"/>
       <path id="DejaVuSans-66" d="M 2375 4863 
L 2375 4384 
L 1825 4384 
Q 1516 4384 1395 4259 
Q 1275 4134 1275 3809 
L 1275 3500 
L 2222 3500 
L 2222 3053 
L 1275 3053 
L 1275 0 
L 697 0 
L 697 3053 
L 147 3053 
L 147 3500 
L 697 3500 
L 697 3744 
Q 697 4328 969 4595 
Q 1241 4863 1831 4863 
L 2375 4863 
z
" transform="scale(0.015625)"/>
       <path id="DejaVuSans-28" d="M 1984 4856 
Q 1566 4138 1362 3434 
Q 1159 2731 1159 2009 
Q 1159 1288 1364 580 
Q 1569 -128 1984 -844 
L 1484 -844 
Q 1016 -109 783 600 
Q 550 1309 550 2009 
Q 550 2706 781 3412 
Q 1013 4119 1484 4856 
L 1984 4856 
z
" transform="scale(0.015625)"/>
       <path id="DejaVuSans-78" d="M 3513 3500 
L 2247 1797 
L 3578 0 
L 2900 0 
L 1881 1375 
L 863 0 
L 184 0 
L 1544 1831 
L 300 3500 
L 978 3500 
L 1906 2253 
L 2834 3500 
L 3513 3500 
z
" transform="scale(0.015625)"/>
       <path id="DejaVuSans-29" d="M 513 4856 
L 1013 4856 
Q 1481 4119 1714 3412 
Q 1947 2706 1947 2009 
Q 1947 1309 1714 600 
Q 1481 -109 1013 -844 
L 513 -844 
Q 928 -128 1133 580 
Q 1338 1288 1338 2009 
Q 1338 2731 1133 3434 
Q 928 4138 513 4856 
z
" transform="scale(0.015625)"/>
       <path id="DejaVuSans-20" transform="scale(0.015625)"/>
       <path id="DejaVuSans-7c" d="M 1344 4891 
L 1344 -1509 
L 813 -1509 
L 813 4891 
L 1344 4891 
z
" transform="scale(0.015625)"/>
       <path id="DejaVuSans-5d" d="M 1947 4863 
L 1947 -844 
L 622 -844 
L 622 -397 
L 1369 -397 
L 1369 4416 
L 622 4416 
L 622 4863 
L 1947 4863 
z
" transform="scale(0.015625)"/>
      </defs>
      <use xlink:href="#DejaVuSans-45"/>
      <use xlink:href="#DejaVuSans-5b" x="63.183594"/>
      <use xlink:href="#DejaVuSans-66" x="102.197266"/>
      <use xlink:href="#DejaVuSans-28" x="137.402344"/>
      <use xlink:href="#DejaVuSans-78" x="176.416016"/>
      <use xlink:href="#DejaVuSans-29" x="235.595703"/>
      <use xlink:href="#DejaVuSans-20" x="274.609375"/>
      <use xlink:href="#DejaVuSans-7c" x="306.396484"/>
      <use xlink:href="#DejaVuSans-20" x="340.087891"/>
      <use xlink:href="#DejaVuSans-70" x="371.875"/>
      <use xlink:href="#DejaVuSans-65" x="435.351562"/>
      <use xlink:href="#DejaVuSans-72" x="496.875"/>
      <use xlink:href="#DejaVuSans-73" x="537.988281"/>
      <use xlink:href="#DejaVuSans-6f" x="590.087891"/>
      <use xlink:href="#DejaVuSans-6e" x="651.269531"/>
      <use xlink:href="#DejaVuSans-5f" x="714.648438"/>
      <use xlink:href="#DejaVuSans-69" x="764.648438"/>
      <use xlink:href="#DejaVuSans-6e" x="792.431641"/>
      <use xlink:href="#DejaVuSans-63" x="855.810547"/>
      <use xlink:href="#DejaVuSans-6f" x="910.791016"/>
      <use xlink:href="#DejaVuSans-6d" x="971.972656"/>
      <use xlink:href="#DejaVuSans-65" x="1069.384766"/>
      <use xlink:href="#DejaVuSans-5d" x="1130.908203"/>
     </g>
    </g>
   </g>
   <g id="line2d_17">
    <path d="M 71.924915 33.747875 
L 75.204254 33.747875 
L 78.483592 33.747875 
L 81.762931 33.747875 
L 85.04227 33.747875 
L 88.321609 56.785373 
L 91.600948 51.230663 
L 94.880287 104.2147 
L 98.159626 117.246383 
L 101.438964 107.060748 
L 104.718303 128.43642 
L 107.997642 135.184899 
L 111.276981 153.631242 
L 114.55632 157.959064 
L 117.835659 165.679237 
L 121.114997 160.258487 
L 124.394336 208.301621 
L 127.673675 203.72189 
L 130.953014 216.124979 
L 134.232353 223.502623 
L 137.511692 249.900443 
L 140.79103 255.081397 
L 144.070369 264.327976 
L 147.349708 263.845003 
L 150.629047 257.9536 
L 153.908386 271.077645 
L 157.187725 253.982274 
L 160.467064 246.88631 
L 163.746402 271.047844 
L 167.025741 271.086473 
L 170.30508 236.403384 
L 173.584419 272.82658 
L 176.863758 272.711302 
L 180.143097 271.864102 
L 183.422435 265.302343 
L 186.701774 273.588007 
L 189.981113 273.588007 
L 193.260452 267.62405 
L 196.539791 267.62405 
L 199.81913 269.162647 
L 203.098468 269.162647 
L 206.377807 275.667875 
L 209.657146 275.667875 
L 212.936485 271.015414 
L 216.215824 271.015414 
L 219.495163 271.015414 
L 222.774502 273.252308 
L 226.05384 273.252308 
L 229.333179 273.252308 
L 232.612518 273.252308 
L 235.891857 264.871011 
L 239.171196 264.871011 
L 242.450535 264.871011 
L 245.729873 264.871011 
L 249.009212 264.871011 
L 252.288551 264.871011 
L 255.56789 264.871011 
L 258.847229 270.62064 
L 262.126568 270.62064 
L 265.405907 270.62064 
L 268.685245 270.62064 
L 271.964584 270.62064 
L 275.243923 270.62064 
L 278.523262 270.62064 
L 281.802601 270.62064 
L 285.08194 270.62064 
L 288.361278 270.62064 
L 291.640617 270.62064 
L 294.919956 270.62064 
L 298.199295 270.62064 
L 301.478634 270.62064 
L 304.757973 271.885233 
L 308.037311 271.885233 
L 311.31665 271.885233 
L 314.595989 271.885233 
L 317.875328 271.885233 
L 321.154667 271.885233 
L 324.434006 271.885233 
L 327.713345 271.885233 
L 330.992683 271.885233 
L 334.272022 271.885233 
L 337.551361 271.885233 
L 340.8307 271.885233 
L 344.110039 271.885233 
L 347.389378 271.885233 
L 350.668716 271.885233 
L 353.948055 271.885233 
L 357.227394 271.885233 
L 360.506733 271.885233 
L 363.786072 271.885233 
L 367.065411 271.885233 
L 370.344749 271.885233 
L 373.624088 271.885233 
L 376.903427 271.885233 
L 380.182766 271.885233 
L 383.462105 271.885233 
L 386.741444 271.885233 
L 390.020783 271.885233 
L 393.300121 271.885233 
L 396.57946 271.885233 
" clip-path="url(#p891e617c62)" style="fill: none; stroke: #008bfb; stroke-width: 2; stroke-linecap: square"/>
   </g>
   <g id="patch_3">
    <path d="M 55.692188 287.763875 
L 55.692188 21.651875 
" style="fill: none; stroke: #000000; stroke-width: 0.8; stroke-linejoin: miter; stroke-linecap: square"/>
   </g>
   <g id="patch_4">
    <path d="M 55.692188 287.763875 
L 412.812188 287.763875 
" style="fill: none; stroke: #000000; stroke-width: 0.8; stroke-linejoin: miter; stroke-linecap: square"/>
   </g>
  </g>
  <g id="axes_2">
   <g id="patch_5">
    <path d="M 71.924915 287.763875 
L 78.418006 287.763875 
L 78.418006 287.763875 
L 71.924915 287.763875 
z
" clip-path="url(#p891e617c62)" style="opacity: 0.1"/>
   </g>
   <g id="patch_6">
    <path d="M 78.418006 287.763875 
L 84.911097 287.763875 
L 84.911097 287.763875 
L 78.418006 287.763875 
z
" clip-path="url(#p891e617c62)" style="opacity: 0.1"/>
   </g>
   <g id="patch_7">
    <path d="M 84.911097 287.763875 
L 91.404188 287.763875 
L 91.404188 278.449955 
L 84.911097 278.449955 
z
" clip-path="url(#p891e617c62)" style="opacity: 0.1"/>
   </g>
   <g id="patch_8">
    <path d="M 91.404188 287.763875 
L 97.897278 287.763875 
L 97.897278 274.458275 
L 91.404188 274.458275 
z
" clip-path="url(#p891e617c62)" style="opacity: 0.1"/>
   </g>
   <g id="patch_9">
    <path d="M 97.897278 287.763875 
L 104.390369 287.763875 
L 104.390369 259.822115 
L 97.897278 259.822115 
z
" clip-path="url(#p891e617c62)" style="opacity: 0.1"/>
   </g>
   <g id="patch_10">
    <path d="M 104.390369 287.763875 
L 110.88346 287.763875 
L 110.88346 249.177635 
L 104.390369 249.177635 
z
" clip-path="url(#p891e617c62)" style="opacity: 0.1"/>
   </g>
   <g id="patch_11">
    <path d="M 110.88346 287.763875 
L 117.376551 287.763875 
L 117.376551 255.830435 
L 110.88346 255.830435 
z
" clip-path="url(#p891e617c62)" style="opacity: 0.1"/>
   </g>
   <g id="patch_12">
    <path d="M 117.376551 287.763875 
L 123.869642 287.763875 
L 123.869642 253.169315 
L 117.376551 253.169315 
z
" clip-path="url(#p891e617c62)" style="opacity: 0.1"/>
   </g>
   <g id="patch_13">
    <path d="M 123.869642 287.763875 
L 130.362733 287.763875 
L 130.362733 269.136035 
L 123.869642 269.136035 
z
" clip-path="url(#p891e617c62)" style="opacity: 0.1"/>
   </g>
   <g id="patch_14">
    <path d="M 130.362733 287.763875 
L 136.855824 287.763875 
L 136.855824 258.491555 
L 130.362733 258.491555 
z
" clip-path="url(#p891e617c62)" style="opacity: 0.1"/>
   </g>
   <g id="patch_15">
    <path d="M 136.855824 287.763875 
L 143.348915 287.763875 
L 143.348915 271.797155 
L 136.855824 271.797155 
z
" clip-path="url(#p891e617c62)" style="opacity: 0.1"/>
   </g>
   <g id="patch_16">
    <path d="M 143.348915 287.763875 
L 149.842006 287.763875 
L 149.842006 278.449955 
L 143.348915 278.449955 
z
" clip-path="url(#p891e617c62)" style="opacity: 0.1"/>
   </g>
   <g id="patch_17">
    <path d="M 149.842006 287.763875 
L 156.335097 287.763875 
L 156.335097 281.111075 
L 149.842006 281.111075 
z
" clip-path="url(#p891e617c62)" style="opacity: 0.1"/>
   </g>
   <g id="patch_18">
    <path d="M 156.335097 287.763875 
L 162.828188 287.763875 
L 162.828188 279.780515 
L 156.335097 279.780515 
z
" clip-path="url(#p891e617c62)" style="opacity: 0.1"/>
   </g>
   <g id="patch_19">
    <path d="M 162.828188 287.763875 
L 169.321278 287.763875 
L 169.321278 277.119395 
L 162.828188 277.119395 
z
" clip-path="url(#p891e617c62)" style="opacity: 0.1"/>
   </g>
   <g id="patch_20">
    <path d="M 169.321278 287.763875 
L 175.814369 287.763875 
L 175.814369 286.433315 
L 169.321278 286.433315 
z
" clip-path="url(#p891e617c62)" style="opacity: 0.1"/>
   </g>
   <g id="patch_21">
    <path d="M 175.814369 287.763875 
L 182.30746 287.763875 
L 182.30746 283.772195 
L 175.814369 283.772195 
z
" clip-path="url(#p891e617c62)" style="opacity: 0.1"/>
   </g>
   <g id="patch_22">
    <path d="M 182.30746 287.763875 
L 188.800551 287.763875 
L 188.800551 287.763875 
L 182.30746 287.763875 
z
" clip-path="url(#p891e617c62)" style="opacity: 0.1"/>
   </g>
   <g id="patch_23">
    <path d="M 188.800551 287.763875 
L 195.293642 287.763875 
L 195.293642 287.763875 
L 188.800551 287.763875 
z
" clip-path="url(#p891e617c62)" style="opacity: 0.1"/>
   </g>
   <g id="patch_24">
    <path d="M 195.293642 287.763875 
L 201.786733 287.763875 
L 201.786733 287.763875 
L 195.293642 287.763875 
z
" clip-path="url(#p891e617c62)" style="opacity: 0.1"/>
   </g>
   <g id="patch_25">
    <path d="M 201.786733 287.763875 
L 208.279824 287.763875 
L 208.279824 286.433315 
L 201.786733 286.433315 
z
" clip-path="url(#p891e617c62)" style="opacity: 0.1"/>
   </g>
   <g id="patch_26">
    <path d="M 208.279824 287.763875 
L 214.772915 287.763875 
L 214.772915 287.763875 
L 208.279824 287.763875 
z
" clip-path="url(#p891e617c62)" style="opacity: 0.1"/>
   </g>
   <g id="patch_27">
    <path d="M 214.772915 287.763875 
L 221.266006 287.763875 
L 221.266006 286.433315 
L 214.772915 286.433315 
z
" clip-path="url(#p891e617c62)" style="opacity: 0.1"/>
   </g>
   <g id="patch_28">
    <path d="M 221.266006 287.763875 
L 227.759097 287.763875 
L 227.759097 286.433315 
L 221.266006 286.433315 
z
" clip-path="url(#p891e617c62)" style="opacity: 0.1"/>
   </g>
   <g id="patch_29">
    <path d="M 227.759097 287.763875 
L 234.252188 287.763875 
L 234.252188 287.763875 
L 227.759097 287.763875 
z
" clip-path="url(#p891e617c62)" style="opacity: 0.1"/>
   </g>
   <g id="patch_30">
    <path d="M 234.252188 287.763875 
L 240.745278 287.763875 
L 240.745278 287.763875 
L 234.252188 287.763875 
z
" clip-path="url(#p891e617c62)" style="opacity: 0.1"/>
   </g>
   <g id="patch_31">
    <path d="M 240.745278 287.763875 
L 247.238369 287.763875 
L 247.238369 287.763875 
L 240.745278 287.763875 
z
" clip-path="url(#p891e617c62)" style="opacity: 0.1"/>
   </g>
   <g id="patch_32">
    <path d="M 247.238369 287.763875 
L 253.73146 287.763875 
L 253.73146 287.763875 
L 247.238369 287.763875 
z
" clip-path="url(#p891e617c62)" style="opacity: 0.1"/>
   </g>
   <g id="patch_33">
    <path d="M 253.73146 287.763875 
L 260.224551 287.763875 
L 260.224551 287.763875 
L 253.73146 287.763875 
z
" clip-path="url(#p891e617c62)" style="opacity: 0.1"/>
   </g>
   <g id="patch_34">
    <path d="M 260.224551 287.763875 
L 266.717642 287.763875 
L 266.717642 287.763875 
L 260.224551 287.763875 
z
" clip-path="url(#p891e617c62)" style="opacity: 0.1"/>
   </g>
   <g id="patch_35">
    <path d="M 266.717642 287.763875 
L 273.210733 287.763875 
L 273.210733 287.763875 
L 266.717642 287.763875 
z
" clip-path="url(#p891e617c62)" style="opacity: 0.1"/>
   </g>
   <g id="patch_36">
    <path d="M 273.210733 287.763875 
L 279.703824 287.763875 
L 279.703824 287.763875 
L 273.210733 287.763875 
z
" clip-path="url(#p891e617c62)" style="opacity: 0.1"/>
   </g>
   <g id="patch_37">
    <path d="M 279.703824 287.763875 
L 286.196915 287.763875 
L 286.196915 287.763875 
L 279.703824 287.763875 
z
" clip-path="url(#p891e617c62)" style="opacity: 0.1"/>
   </g>
   <g id="patch_38">
    <path d="M 286.196915 287.763875 
L 292.690006 287.763875 
L 292.690006 287.763875 
L 286.196915 287.763875 
z
" clip-path="url(#p891e617c62)" style="opacity: 0.1"/>
   </g>
   <g id="patch_39">
    <path d="M 292.690006 287.763875 
L 299.183097 287.763875 
L 299.183097 287.763875 
L 292.690006 287.763875 
z
" clip-path="url(#p891e617c62)" style="opacity: 0.1"/>
   </g>
   <g id="patch_40">
    <path d="M 299.183097 287.763875 
L 305.676188 287.763875 
L 305.676188 287.763875 
L 299.183097 287.763875 
z
" clip-path="url(#p891e617c62)" style="opacity: 0.1"/>
   </g>
   <g id="patch_41">
    <path d="M 305.676188 287.763875 
L 312.169278 287.763875 
L 312.169278 287.763875 
L 305.676188 287.763875 
z
" clip-path="url(#p891e617c62)" style="opacity: 0.1"/>
   </g>
   <g id="patch_42">
    <path d="M 312.169278 287.763875 
L 318.662369 287.763875 
L 318.662369 287.763875 
L 312.169278 287.763875 
z
" clip-path="url(#p891e617c62)" style="opacity: 0.1"/>
   </g>
   <g id="patch_43">
    <path d="M 318.662369 287.763875 
L 325.15546 287.763875 
L 325.15546 287.763875 
L 318.662369 287.763875 
z
" clip-path="url(#p891e617c62)" style="opacity: 0.1"/>
   </g>
   <g id="patch_44">
    <path d="M 325.15546 287.763875 
L 331.648551 287.763875 
L 331.648551 287.763875 
L 325.15546 287.763875 
z
" clip-path="url(#p891e617c62)" style="opacity: 0.1"/>
   </g>
   <g id="patch_45">
    <path d="M 331.648551 287.763875 
L 338.141642 287.763875 
L 338.141642 287.763875 
L 331.648551 287.763875 
z
" clip-path="url(#p891e617c62)" style="opacity: 0.1"/>
   </g>
   <g id="patch_46">
    <path d="M 338.141642 287.763875 
L 344.634733 287.763875 
L 344.634733 287.763875 
L 338.141642 287.763875 
z
" clip-path="url(#p891e617c62)" style="opacity: 0.1"/>
   </g>
   <g id="patch_47">
    <path d="M 344.634733 287.763875 
L 351.127824 287.763875 
L 351.127824 286.433315 
L 344.634733 286.433315 
z
" clip-path="url(#p891e617c62)" style="opacity: 0.1"/>
   </g>
   <g id="patch_48">
    <path d="M 351.127824 287.763875 
L 357.620915 287.763875 
L 357.620915 287.763875 
L 351.127824 287.763875 
z
" clip-path="url(#p891e617c62)" style="opacity: 0.1"/>
   </g>
   <g id="patch_49">
    <path d="M 357.620915 287.763875 
L 364.114006 287.763875 
L 364.114006 287.763875 
L 357.620915 287.763875 
z
" clip-path="url(#p891e617c62)" style="opacity: 0.1"/>
   </g>
   <g id="patch_50">
    <path d="M 364.114006 287.763875 
L 370.607097 287.763875 
L 370.607097 287.763875 
L 364.114006 287.763875 
z
" clip-path="url(#p891e617c62)" style="opacity: 0.1"/>
   </g>
   <g id="patch_51">
    <path d="M 370.607097 287.763875 
L 377.100188 287.763875 
L 377.100188 287.763875 
L 370.607097 287.763875 
z
" clip-path="url(#p891e617c62)" style="opacity: 0.1"/>
   </g>
   <g id="patch_52">
    <path d="M 377.100188 287.763875 
L 383.593278 287.763875 
L 383.593278 286.433315 
L 377.100188 286.433315 
z
" clip-path="url(#p891e617c62)" style="opacity: 0.1"/>
   </g>
   <g id="patch_53">
    <path d="M 383.593278 287.763875 
L 390.086369 287.763875 
L 390.086369 287.763875 
L 383.593278 287.763875 
z
" clip-path="url(#p891e617c62)" style="opacity: 0.1"/>
   </g>
   <g id="patch_54">
    <path d="M 390.086369 287.763875 
L 396.57946 287.763875 
L 396.57946 287.763875 
L 390.086369 287.763875 
z
" clip-path="url(#p891e617c62)" style="opacity: 0.1"/>
   </g>
   <g id="matplotlib.axis_3"/>
  </g>
  <g id="axes_3">
   <g id="matplotlib.axis_4">
    <g id="xtick_6">
     <g id="line2d_18"/>
     <g id="text_17">
      <!-- E[person_income] -->
      <g transform="translate(65.776572 15.558281) scale(0.11 -0.11)">
       <use xlink:href="#DejaVuSans-45"/>
       <use xlink:href="#DejaVuSans-5b" x="63.183594"/>
       <use xlink:href="#DejaVuSans-70" x="102.197266"/>
       <use xlink:href="#DejaVuSans-65" x="165.673828"/>
       <use xlink:href="#DejaVuSans-72" x="227.197266"/>
       <use xlink:href="#DejaVuSans-73" x="268.310547"/>
       <use xlink:href="#DejaVuSans-6f" x="320.410156"/>
       <use xlink:href="#DejaVuSans-6e" x="381.591797"/>
       <use xlink:href="#DejaVuSans-5f" x="444.970703"/>
       <use xlink:href="#DejaVuSans-69" x="494.970703"/>
       <use xlink:href="#DejaVuSans-6e" x="522.753906"/>
       <use xlink:href="#DejaVuSans-63" x="586.132812"/>
       <use xlink:href="#DejaVuSans-6f" x="641.113281"/>
       <use xlink:href="#DejaVuSans-6d" x="702.294922"/>
       <use xlink:href="#DejaVuSans-65" x="799.707031"/>
       <use xlink:href="#DejaVuSans-5d" x="861.230469"/>
      </g>
     </g>
    </g>
   </g>
   <g id="patch_55">
    <path d="M 55.692188 287.763875 
L 55.692188 21.651875 
" style="fill: none; stroke: #000000; stroke-width: 0.8; stroke-linejoin: miter; stroke-linecap: square"/>
   </g>
   <g id="patch_56">
    <path d="M 55.692188 287.763875 
L 412.812188 287.763875 
" style="fill: none; stroke: #000000; stroke-width: 0.8; stroke-linejoin: miter; stroke-linecap: square"/>
   </g>
  </g>
  <g id="axes_4">
   <g id="matplotlib.axis_5">
    <g id="ytick_10">
     <g id="line2d_19"/>
     <g id="text_18">
      <!-- E[f(x)] -->
      <g transform="translate(416.312188 256.847486) scale(0.11 -0.11)">
       <use xlink:href="#DejaVuSans-45"/>
       <use xlink:href="#DejaVuSans-5b" x="63.183594"/>
       <use xlink:href="#DejaVuSans-66" x="102.197266"/>
       <use xlink:href="#DejaVuSans-28" x="137.402344"/>
       <use xlink:href="#DejaVuSans-78" x="176.416016"/>
       <use xlink:href="#DejaVuSans-29" x="235.595703"/>
       <use xlink:href="#DejaVuSans-5d" x="274.609375"/>
      </g>
     </g>
    </g>
   </g>
   <g id="patch_57">
    <path d="M 55.692188 287.763875 
L 55.692188 21.651875 
" style="fill: none; stroke: #000000; stroke-width: 0.8; stroke-linejoin: miter; stroke-linecap: square"/>
   </g>
   <g id="patch_58">
    <path d="M 55.692188 287.763875 
L 412.812188 287.763875 
" style="fill: none; stroke: #000000; stroke-width: 0.8; stroke-linejoin: miter; stroke-linecap: square"/>
   </g>
  </g>
 </g>
 <defs>
  <clipPath id="p891e617c62">
   <rect x="55.692188" y="21.651875" width="357.12" height="266.112"/>
  </clipPath>
 </defs>
</svg>
